<svg width="103" height="20" viewBox="0 0 103 20" fill="none" xmlns="http://www.w3.org/2000/svg">
<path d="M57.0397 11.475C56.8422 11.4644 56.6867 11.2992 56.6841 11.0973V0.566484C56.7053 0.366539 56.873 0.216564 57.0699 0.22151H58.9332C59.1029 0.22707 59.2482 0.347285 59.2888 0.515645V2.12613H59.3279C59.8897 0.686317 60.6774 0 62.0641 0C62.9638 0 63.8421 0.332265 64.4092 1.24009C64.9337 2.08255 64.9337 3.50058 64.9337 4.51916V11.1445C64.9044 11.3378 64.7394 11.479 64.5479 11.475H62.5282C62.347 11.467 62.1973 11.3279 62.1726 11.1445V5.42698C62.1726 5.33745 62.1734 5.24469 62.1742 5.14974C62.1839 4.02395 62.1962 2.59094 60.9156 2.59094C60.4 2.61528 59.9457 2.94446 59.7528 3.4334C59.4719 4.07614 59.4346 4.71888 59.4346 5.43061V11.0973C59.4269 11.311 59.2528 11.479 59.0434 11.475H57.0397Z" fill="#232F3E"/>
<path fill-rule="evenodd" clip-rule="evenodd" d="M50.5609 0.0145289C53.5425 0.0145289 55.1551 2.62907 55.1551 5.95171C55.1551 9.1636 53.3771 11.711 50.5609 11.711C47.6362 11.711 46.0432 9.09642 46.0432 5.84096C46.0432 2.58549 47.6558 0.0145289 50.5609 0.0145289ZM50.5805 2.16426C49.0994 2.16426 49.0052 4.2232 49.0052 5.50869L49.0052 5.55129C49.005 6.85376 49.0046 9.53944 50.5609 9.53944C52.1344 9.53944 52.193 7.32434 52.193 5.97349C52.193 5.08746 52.1557 4.02348 51.8926 3.18284C51.6668 2.45658 51.217 2.16426 50.5805 2.16426Z" fill="#232F3E"/>
<path d="M11.4375 11.4968C11.2512 11.4868 11.1001 11.3394 11.0819 11.1499V0.619136C11.0886 0.408108 11.2592 0.24121 11.4659 0.243296H13.3381C13.5299 0.254103 13.6831 0.410526 13.6936 0.606426V1.98087H13.731C14.2181 0.650002 15.1373 0.0308645 16.3748 0.0308645C17.6122 0.0308645 18.4176 0.650002 18.9812 1.98087C19.3575 0.956671 20.2454 0.219281 21.3039 0.0518415C22.3625 -0.115598 23.4272 0.31294 24.0892 1.17291C24.6354 1.93105 24.6179 2.98694 24.6015 3.97891C24.5987 4.14626 24.5959 4.31179 24.5959 4.47377V11.1172C24.5941 11.2201 24.5521 11.318 24.4794 11.3892C24.4066 11.4605 24.3091 11.4991 24.2084 11.4968H22.2011C22.0036 11.4862 21.848 11.321 21.8455 11.1191V5.53774C21.8455 5.45338 21.8468 5.34493 21.8484 5.22171V5.22069C21.8549 4.69679 21.8648 3.90674 21.7886 3.56594C21.6392 2.85783 21.1894 2.65811 20.608 2.65811C20.0751 2.67474 19.6032 3.01392 19.4079 3.52055C19.2164 4.01618 19.2181 4.8139 19.2193 5.40505L19.2195 5.53774V11.1172C19.2176 11.2198 19.1759 11.3174 19.1035 11.3886C19.0312 11.4598 18.9341 11.4987 18.8337 11.4968H16.821C16.624 11.4853 16.4689 11.3206 16.4654 11.1191V5.53774C16.4654 5.42366 16.4671 5.30434 16.4689 5.18188C16.4849 4.04343 16.5048 2.63269 15.2209 2.63269C13.8321 2.63269 13.8332 4.23723 13.8341 5.4504L13.8341 11.1172C13.8322 11.2201 13.7903 11.318 13.7175 11.3892C13.6448 11.4605 13.5473 11.4991 13.4465 11.4968H11.4375Z" fill="#232F3E"/>
<path fill-rule="evenodd" clip-rule="evenodd" d="M7.4691 11.6256C7.62159 11.7133 7.8116 11.6937 7.94381 11.5766L7.95981 11.5802C8.35985 11.2153 9.0888 10.5689 9.49951 10.2185C9.65596 10.0823 9.62752 9.85536 9.49951 9.67379C9.46043 9.61886 9.4211 9.565 9.382 9.51147C9.05283 9.06079 8.74033 8.63294 8.74033 7.77281V4.57907C8.74033 4.47592 8.74083 4.37338 8.74134 4.27157C8.74743 3.03826 8.75301 1.90971 7.85136 1.04763C7.08329 0.29232 5.80674 0.0272345 4.82887 0.0272345C2.91759 0.0272345 0.784069 0.755311 0.337808 3.1665C0.319305 3.26408 0.34078 3.36514 0.397226 3.44612C0.453671 3.52709 0.540152 3.5809 0.636501 3.59499L2.56734 3.81105C2.7559 3.78185 2.90174 3.62696 2.92292 3.4334C3.09005 2.60365 3.77278 2.20239 4.53907 2.20239C4.9551 2.20239 5.42092 2.35672 5.66628 2.73437C5.91809 3.11359 5.91418 3.61681 5.91066 4.06881C5.91026 4.12097 5.90985 4.17268 5.90985 4.22321V4.48829C5.7273 4.50935 5.53596 4.5293 5.33888 4.54985C4.27879 4.66036 3.05252 4.78819 2.13352 5.20003C0.888967 5.75562 0 6.88677 0 8.55172C0 10.6833 1.31567 11.7491 3.00649 11.7491C4.43417 11.7491 5.21468 11.4059 6.31878 10.2584C6.37201 10.3376 6.42004 10.4107 6.46534 10.4798C6.72873 10.881 6.90023 11.1423 7.4691 11.6256ZM5.9188 6.67572L5.91874 6.13509C4.46617 6.13509 2.93181 6.45283 2.93181 8.19949C2.93181 9.08916 3.38163 9.68832 4.15147 9.68832C4.71686 9.68832 5.22357 9.33246 5.5436 8.75508C5.92011 8.07133 5.91951 7.43093 5.9188 6.67572Z" fill="#232F3E"/>
<path fill-rule="evenodd" clip-rule="evenodd" d="M35.8236 9.66653C35.7845 9.61151 35.7451 9.55758 35.7059 9.50397C35.3768 9.05339 35.0644 8.62571 35.0644 7.76736V4.57181C35.0644 4.46321 35.065 4.35533 35.0656 4.24826L35.0657 4.2448C35.0726 3.01779 35.079 1.89798 34.1755 1.04037C33.4056 0.285055 32.129 0.0199703 31.153 0.0199703C29.2417 0.0199703 27.1082 0.746231 26.6601 3.15923C26.6411 3.25736 26.6625 3.35916 26.7194 3.44061C26.7763 3.52206 26.8635 3.57594 26.9606 3.58954L28.9074 3.80379C29.0957 3.774 29.2413 3.61941 29.263 3.42613C29.4319 2.59638 30.1111 2.19512 30.8774 2.19512C31.2916 2.19512 31.7663 2.35127 32.0046 2.72892C32.2581 3.10673 32.2542 3.61014 32.2507 4.06231C32.2503 4.11429 32.2499 4.16559 32.2499 4.21594V4.47558C32.0712 4.49592 31.884 4.51524 31.6912 4.53514C30.628 4.64484 29.3946 4.7721 28.4736 5.1855C27.2148 5.74109 26.3312 6.87224 26.3312 8.53901C26.3312 10.6688 27.6469 11.7346 29.3377 11.7346C30.76 11.7346 31.5459 11.3914 32.6482 10.2439C32.7006 10.3219 32.748 10.3939 32.7926 10.4618C33.0598 10.8682 33.229 11.1257 33.8003 11.6111C33.9527 11.6982 34.142 11.6794 34.275 11.5639C34.675 11.2008 35.404 10.5526 35.8147 10.2021C35.9872 10.0769 35.9587 9.85536 35.8236 9.66653ZM31.8766 8.74599C31.5583 9.32155 31.0498 9.67742 30.4862 9.67742C29.7164 9.67742 29.2666 9.07826 29.2666 8.1904C29.2666 6.44193 30.8009 6.12601 32.2535 6.12601L32.2535 6.65044C32.254 7.41509 32.2544 8.05852 31.8766 8.74599Z" fill="#232F3E"/>
<path d="M37.5233 2.08256V0.58283C37.5186 0.480155 37.5568 0.380261 37.6283 0.307926C37.6998 0.235592 37.798 0.197594 37.8985 0.203359H44.4999C44.6003 0.199886 44.6977 0.238447 44.7695 0.310102C44.8414 0.381757 44.8814 0.480281 44.8804 0.58283V1.87376C44.8804 2.08982 44.7026 2.37306 44.3844 2.81971L40.9636 7.80549C42.2331 7.77463 43.5754 7.9689 44.7293 8.63162C44.9424 8.74766 45.0781 8.97154 45.0849 9.21807V10.8304C45.0849 11.0519 44.8484 11.3079 44.5977 11.1753C42.4079 10.0259 39.8086 10.0307 37.6229 11.1881C37.3935 11.3133 37.1535 11.061 37.1535 10.8394V9.30522C37.1325 8.94357 37.218 8.58378 37.3989 8.27212L41.3619 2.46203H37.9056C37.8049 2.46601 37.707 2.42768 37.6348 2.35596C37.5626 2.28425 37.5223 2.18544 37.5233 2.08256Z" fill="#232F3E"/>
<path fill-rule="evenodd" clip-rule="evenodd" d="M72.4153 1.54149C72.9198 1.0871 73.4964 0.723633 74.1203 0.466623C74.7097 0.226709 75.3384 0.103475 75.9729 0.103493C76.6036 0.0915055 77.2292 0.220397 77.806 0.481149C78.3495 0.735629 78.8256 1.1191 79.1945 1.59959C79.5963 2.1319 79.8933 2.73859 80.0693 3.38619C80.2825 4.15372 80.3855 4.94879 80.3751 5.74654C80.3848 6.56126 80.2745 7.37285 80.0479 8.15409C79.8583 8.81703 79.5476 9.43737 79.1323 9.98245C78.7466 10.478 78.2569 10.8789 77.6993 11.1554C77.1133 11.4331 76.473 11.5704 75.8271 11.5566C74.6201 11.577 73.4517 11.1219 72.5646 10.2857V15.3259C72.5816 15.4445 72.5427 15.5643 72.4597 15.6491C72.3767 15.7338 72.2594 15.7735 72.1432 15.7562H70.8987C70.7826 15.7735 70.6652 15.7338 70.5823 15.6491C70.4993 15.5643 70.4604 15.4445 70.4773 15.3259V0.853357C70.4611 0.734933 70.5003 0.615617 70.5831 0.531067C70.6659 0.446518 70.7827 0.406528 70.8987 0.423048H71.825C71.9459 0.411501 72.0661 0.450946 72.1578 0.532219C72.2495 0.613493 72.3046 0.729523 72.3104 0.853357L72.4153 1.54149ZM75.3844 1.82109C74.3636 1.82932 73.3732 2.17667 72.5628 2.81062V8.80228C73.4613 9.49222 74.3876 9.83659 75.3418 9.83538C77.2785 9.83538 78.2469 8.5039 78.2469 5.84095C78.2469 3.17799 77.2927 1.83743 75.3844 1.81928V1.82109Z" fill="#232F3E"/>
<path fill-rule="evenodd" clip-rule="evenodd" d="M83.0047 2.35127L83.1629 2.2968C84.1643 1.98181 85.2051 1.81668 86.2529 1.80657C87.0957 1.80779 87.6854 1.96575 88.022 2.28046C88.3586 2.59517 88.5269 3.13987 88.5269 3.91455V5.32712C87.6598 5.09994 86.7694 4.97805 85.8742 4.96399C84.6392 4.96278 83.6566 5.27447 82.9264 5.89905C82.1963 6.52364 81.8312 7.35884 81.8312 8.40465C81.8336 9.37905 82.1299 10.1568 82.7202 10.7378C83.3105 11.3188 84.1105 11.6093 85.1204 11.6093C85.7448 11.6066 86.3632 11.4834 86.9428 11.2461C87.554 11.0025 88.1199 10.6536 88.6158 10.2149L88.7225 10.9248C88.7278 11.0427 88.7803 11.1532 88.8677 11.2305C88.9551 11.3077 89.0697 11.3449 89.1847 11.3333H90.0915C90.2075 11.3498 90.3243 11.3098 90.4071 11.2253C90.4899 11.1407 90.529 11.0214 90.5129 10.903V3.55686C90.5117 2.38032 90.1952 1.51304 89.5634 0.955034C88.9317 0.397024 87.9491 0.118019 86.6156 0.118019C85.952 0.118019 85.2898 0.178843 84.6368 0.299584C84.0668 0.392577 83.5091 0.551563 82.9744 0.773469C82.8451 0.818168 82.7293 0.896367 82.6384 1.00043C82.5693 1.12829 82.5396 1.27445 82.5531 1.41984V1.9954C82.5531 2.25504 82.6491 2.38395 82.8269 2.38395C82.8875 2.38302 82.9475 2.37198 83.0047 2.35127ZM87.0797 9.721C86.6148 9.89838 86.1234 9.99237 85.6271 9.9988C85.0795 10 84.6581 9.85354 84.363 9.5594C84.0679 9.26527 83.9203 8.84585 83.9203 8.30116C83.9191 7.0532 84.7127 6.42922 86.3009 6.42922C86.6773 6.43002 87.0532 6.45549 87.4264 6.50548C87.7982 6.55333 88.1674 6.62121 88.5322 6.70883V8.90395C88.0912 9.24956 87.6014 9.52502 87.0797 9.721Z" fill="#232F3E"/>
<path d="M96.0476 15.3677C96.5454 14.9368 96.9845 14.2268 97.365 13.2379L101.998 1.19652C102.075 1.03342 102.125 0.858617 102.146 0.679058C102.146 0.508386 102.048 0.421235 101.851 0.421235H100.672C100.51 0.405377 100.347 0.442921 100.208 0.528359C100.089 0.663972 100.003 0.826336 99.9573 1.00224L97.1126 9.34516L94.163 1.00224C94.1171 0.826336 94.0312 0.663972 93.9123 0.528359C93.7728 0.442921 93.6101 0.405377 93.4482 0.421235H92.1841C91.9885 0.421235 91.8908 0.508386 91.8908 0.679058C91.911 0.858591 91.9603 1.03345 92.0366 1.19652L96.0938 11.4386L95.6938 12.528C95.4555 13.2167 95.1888 13.69 94.8937 13.9478C94.5382 14.226 94.0961 14.3634 93.6491 14.3346C93.4592 14.3386 93.2692 14.324 93.082 14.291C92.9778 14.2682 92.8719 14.2542 92.7655 14.2492C92.5539 14.2492 92.449 14.3854 92.449 14.6578V15.217C92.4373 15.3711 92.4741 15.525 92.5539 15.6564C92.6414 15.7607 92.7601 15.8328 92.8917 15.8615C93.2832 15.9671 93.687 16.0177 94.0918 16.0122C94.8978 16.0134 95.5498 15.7986 96.0476 15.3677Z" fill="#232F3E"/>
<path fill-rule="evenodd" clip-rule="evenodd" d="M40.8249 18.1928C41.2819 17.0326 42.2988 14.4326 41.8152 13.8025H41.8188C41.3373 13.1712 38.6348 13.5025 37.4192 13.6515L37.4166 13.6518C37.0468 13.6972 36.9899 13.3686 37.3224 13.1308C39.4808 11.582 43.0171 12.025 43.4278 12.5479C43.8385 13.0708 43.3158 16.6912 41.2943 18.4197C40.9832 18.6848 40.6863 18.5432 40.8249 18.1928ZM26.301 19.983C31.0018 19.983 36.4761 18.467 40.2471 15.6255V15.6309C40.8712 15.1516 40.336 14.4471 39.6995 14.7231C35.5833 16.4961 31.1648 17.4217 26.6975 17.4466C20.4996 17.4466 14.5044 15.7108 9.65419 12.8294C9.22926 12.577 8.91279 13.0218 9.26838 13.3468C13.9378 17.6491 20.012 20.0158 26.301 19.983Z" fill="#FF9900"/>
</svg>
