<svg width="80" height="50" viewBox="0 0 80 50" fill="none" xmlns="http://www.w3.org/2000/svg">
<path d="M80 24.721C80 38.3863 68.9442 49.4421 55.279 49.4421C49.5108 49.4421 44.2232 47.4507 40.0344 44.1545C45.8026 39.6223 49.4421 32.618 49.4421 24.721C49.4421 16.824 45.734 9.81975 40.0344 5.28756C44.2232 1.99142 49.5108 0 55.279 0C68.9442 0 80 11.1245 80 24.721Z" fill="#F79E1B"/>
<path d="M40.0344 5.28756C40.0344 5.28756 40.0344 5.28757 40.0344 5.28756C45.734 9.81975 49.4421 16.824 49.4421 24.721C49.4421 32.618 45.8026 39.6223 40.0344 44.1545L39.9654 44.1545C34.266 39.691 30.5579 32.6181 30.5579 24.7212C30.5579 16.8242 34.2661 9.81989 39.9656 5.2877C39.9656 5.28765 39.9657 5.28775 39.9656 5.2877L40.0344 5.28756Z" fill="#FF5F00"/>
<path d="M30.5579 24.7212C30.5579 16.8242 34.2661 9.81989 39.9656 5.2877C35.7768 1.99157 30.4893 0.000106812 24.721 0.000106812C11.0558 0.000106812 0 11.0559 0 24.7211C0 38.3864 11.0558 49.4422 24.721 49.4422C30.4893 49.4422 35.7766 47.4507 39.9654 44.1545C34.266 39.691 30.5579 32.6181 30.5579 24.7212Z" fill="#EB001B"/>
</svg>
