<svg xmlns="http://www.w3.org/2000/svg" width="51" height="27" viewBox="0 0 51 27" fill="none">
  <path d="M50.05 1.41016H1.04999V26.4102H50.05V1.41016Z" stroke="#F0F0F0"/>
  <mask id="mask0_1_1296" style="mask-type:luminance" maskUnits="userSpaceOnUse" x="1" y="1" width="49" height="25">
    <path d="M49.55 1.91016H1.54999V25.9102H49.55V1.91016Z" fill="#70706E"/>
  </mask>
  <g mask="url(#mask0_1_1296)">
    <path d="M17.7204 11.9895C18.2185 11.9895 18.648 11.8919 19.0088 11.6969C19.3696 11.5018 19.6551 11.2471 19.8653 10.9327C20.0756 10.6183 20.2024 10.283 20.246 9.92698L19.0017 9.9213C18.943 10.2319 18.8 10.4729 18.5727 10.6443C18.3454 10.8157 18.068 10.9014 17.7403 10.9014C17.299 10.9014 16.9416 10.74 16.6679 10.417C16.3942 10.0941 16.2574 9.62206 16.2574 9.00084C16.2574 8.39478 16.3933 7.92651 16.665 7.59601C16.9368 7.26552 17.2981 7.10028 17.7488 7.10028C18.086 7.10028 18.3672 7.19166 18.5926 7.37442C18.818 7.55719 18.9543 7.80861 19.0017 8.12868H20.246C20.193 7.67982 20.0514 7.29772 19.8213 6.98238C19.5912 6.66704 19.2957 6.42651 18.9349 6.26079C18.5741 6.09507 18.1693 6.01221 17.7204 6.01221C17.2091 6.01221 16.7488 6.12916 16.3398 6.36306C15.9307 6.59696 15.6068 6.93645 15.3682 7.38153C15.1295 7.8266 15.0102 8.36637 15.0102 9.00084C15.0102 9.63342 15.1281 10.1722 15.3639 10.6173C15.5997 11.0624 15.9217 11.4024 16.3298 11.6372C16.738 11.8721 17.2015 11.9895 17.7204 11.9895ZM22.3511 11.9923C22.6731 11.9923 22.9397 11.9284 23.1508 11.8006C23.362 11.6727 23.5206 11.5075 23.6267 11.3048H23.6608V11.9099H24.8085V8.96675C24.8085 8.62016 24.7219 8.33844 24.5486 8.12158C24.3753 7.90473 24.1475 7.74516 23.8653 7.64289C23.5831 7.54062 23.2801 7.48948 22.9562 7.48948C22.4335 7.48948 22.0069 7.60596 21.6764 7.83891C21.3459 8.07187 21.139 8.38721 21.0557 8.78493L22.175 8.87584C22.2167 8.73001 22.3019 8.60974 22.4307 8.51505C22.5595 8.42035 22.7327 8.373 22.9506 8.373C23.157 8.373 23.3166 8.42225 23.4292 8.52073C23.5419 8.61921 23.5983 8.75842 23.5983 8.93834V8.95539C23.5983 9.09554 23.5168 9.18645 23.354 9.22812C23.1911 9.26978 22.9203 9.30956 22.5415 9.34743C22.2536 9.37395 21.9851 9.43029 21.7361 9.51647C21.487 9.60264 21.2858 9.73853 21.1324 9.92414C20.979 10.1097 20.9023 10.3654 20.9023 10.6912C20.9023 11.123 21.0396 11.4478 21.3142 11.6656C21.5888 11.8834 21.9345 11.9923 22.3511 11.9923ZM22.6977 11.1571C22.5121 11.1571 22.3592 11.1145 22.2389 11.0293C22.1186 10.944 22.0585 10.8181 22.0585 10.6514C22.0585 10.481 22.1234 10.3512 22.2531 10.2622C22.3828 10.1732 22.5538 10.1135 22.7659 10.0832C22.8549 10.07 22.9558 10.0543 23.0684 10.0364C23.1811 10.0184 23.2872 9.99706 23.3866 9.97243C23.4861 9.94781 23.5595 9.9194 23.6068 9.88721V10.3503C23.6068 10.5794 23.5216 10.7712 23.3511 10.9256C23.1807 11.0799 22.9629 11.1571 22.6977 11.1571ZM27.5358 11.9952C27.9127 11.9952 28.247 11.935 28.5386 11.8148C28.8303 11.6945 29.0599 11.5264 29.2275 11.3105C29.3952 11.0946 29.479 10.8436 29.479 10.5577C29.4771 9.94213 29.0566 9.54819 28.2176 9.37584L27.4278 9.21675C27.2252 9.17319 27.0817 9.11543 26.9974 9.04346C26.9131 8.97149 26.872 8.88342 26.8738 8.77925C26.872 8.64857 26.9359 8.54393 27.0656 8.46533C27.1953 8.38673 27.354 8.34743 27.5415 8.34743C27.7517 8.34743 27.9184 8.39762 28.0415 8.498C28.1646 8.59838 28.2413 8.71865 28.2716 8.8588L29.3795 8.79062C29.3265 8.3891 29.1414 8.07187 28.8241 7.83891C28.5069 7.60596 28.0727 7.48948 27.5216 7.48948C26.9629 7.48948 26.5145 7.61069 26.1764 7.85312C25.8383 8.09554 25.6703 8.42698 25.6721 8.84743C25.6684 9.51031 26.0888 9.92603 26.9335 10.0946L27.6892 10.2452C28.0566 10.319 28.2432 10.4639 28.2488 10.6798C28.247 10.8086 28.1811 10.9147 28.0514 10.998C27.9217 11.0813 27.7507 11.123 27.5386 11.123C27.3227 11.123 27.1461 11.0775 27.0088 10.9866C26.8715 10.8957 26.7839 10.7613 26.746 10.5832L25.5557 10.6457C25.6125 11.0624 25.8123 11.3915 26.1551 11.6329C26.4979 11.8744 26.9581 11.9952 27.5358 11.9952ZM31.4534 11.9099V9.38721C31.4553 9.10501 31.5344 8.88579 31.6906 8.72954C31.8469 8.57329 32.0481 8.49516 32.2943 8.49516C32.5405 8.49516 32.7323 8.56997 32.8696 8.71959C33.0069 8.86921 33.0746 9.0785 33.0727 9.34743V11.9099H34.283V9.13153C34.2848 8.62016 34.1475 8.21865 33.871 7.92698C33.5945 7.63531 33.229 7.48948 32.7744 7.48948C32.443 7.48948 32.1679 7.56287 31.9491 7.70965C31.7304 7.85643 31.5708 8.05861 31.4704 8.31618H31.4193V6.09175H30.2432V11.9099H31.4534ZM39.0642 11.9952C39.5055 11.9952 39.8866 11.9009 40.2077 11.7125C40.5287 11.524 40.7763 11.2608 40.9506 10.9227C41.1248 10.5847 41.2119 10.1921 41.2119 9.74516C41.2119 9.2944 41.1248 8.89999 40.9506 8.56192C40.7763 8.22385 40.5287 7.9606 40.2077 7.77215C39.8866 7.5837 39.5055 7.48948 39.0642 7.48948C38.6229 7.48948 38.2417 7.5837 37.9207 7.77215C37.5997 7.9606 37.3521 8.22385 37.1778 8.56192C37.0036 8.89999 36.9165 9.2944 36.9165 9.74516C36.9165 10.1921 37.0036 10.5847 37.1778 10.9227C37.3521 11.2608 37.5997 11.524 37.9207 11.7125C38.2417 11.9009 38.6229 11.9952 39.0642 11.9952ZM39.0699 11.0577C38.7649 11.0577 38.5348 10.9327 38.3795 10.6827C38.2242 10.4327 38.1466 10.1173 38.1466 9.73664C38.1466 9.35596 38.2242 9.04014 38.3795 8.7892C38.5348 8.53825 38.7649 8.41278 39.0699 8.41278C39.3691 8.41278 39.5959 8.53825 39.7503 8.7892C39.9046 9.04014 39.9818 9.35596 39.9818 9.73664C39.9818 10.1173 39.9046 10.4327 39.7503 10.6827C39.5959 10.9327 39.3691 11.0577 39.0699 11.0577ZM43.2119 11.9099V9.38721C43.2138 9.10501 43.291 8.88579 43.4435 8.72954C43.5959 8.57329 43.7943 8.49516 44.0386 8.49516C44.281 8.49516 44.4714 8.57045 44.6096 8.72101C44.7479 8.87158 44.8161 9.08039 44.8142 9.34743V11.9099H46.0244V9.13153C46.0244 8.62206 45.8871 8.22101 45.6125 7.9284C45.3379 7.63579 44.9733 7.48948 44.5187 7.48948C44.1949 7.48948 43.9198 7.56382 43.6935 7.71249C43.4671 7.86117 43.3047 8.0624 43.2062 8.31618H43.1551V7.5463H42.0017V11.9099H43.2119ZM16.8497 19.9099C17.4406 19.9099 17.9487 19.7935 18.3738 19.5605C18.799 19.3275 19.1257 18.9933 19.354 18.5577C19.5822 18.1221 19.6963 17.6012 19.6963 16.9952C19.6963 16.391 19.5827 15.8721 19.3554 15.4383C19.1281 15.0046 18.8028 14.6718 18.3795 14.4398C17.9562 14.2078 17.452 14.0918 16.8667 14.0918H14.7872V19.9099H16.8497ZM16.7986 18.856H16.0173V15.1457H16.8014C17.3469 15.1457 17.7612 15.2925 18.0443 15.5861C18.3274 15.8796 18.469 16.3493 18.469 16.9952C18.469 17.6448 18.3274 18.1173 18.0443 18.4128C17.7612 18.7082 17.3459 18.856 16.7986 18.856ZM22.5713 19.9952C23.1111 19.9952 23.5542 19.8739 23.9008 19.6315C24.2474 19.3891 24.4633 19.0652 24.5486 18.6599L23.4292 18.5861C23.3686 18.7527 23.2645 18.8787 23.1167 18.9639C22.969 19.0491 22.7938 19.0918 22.5912 19.0918C22.2881 19.0918 22.0476 18.998 21.8696 18.8105C21.6916 18.623 21.6025 18.3664 21.6025 18.0406V18.0378H24.5741V17.7054C24.5741 17.2111 24.4832 16.7996 24.3014 16.471C24.1196 16.1424 23.8738 15.8967 23.5642 15.7338C23.2545 15.5709 22.9075 15.4895 22.523 15.4895C22.095 15.4895 21.7223 15.5842 21.4051 15.7736C21.0879 15.963 20.8421 16.2272 20.6679 16.5662C20.4936 16.9052 20.4065 17.2991 20.4065 17.748C20.4065 18.2082 20.4936 18.6064 20.6679 18.9426C20.8421 19.2788 21.0912 19.5382 21.415 19.721C21.7389 19.9038 22.1243 19.9952 22.5713 19.9952ZM23.4349 17.2878H21.6025C21.6158 17.0397 21.7086 16.8285 21.8809 16.6543C22.0533 16.48 22.2739 16.3929 22.5429 16.3929C22.8061 16.3929 23.0202 16.4772 23.1849 16.6457C23.3497 16.8143 23.433 17.0283 23.4349 17.2878ZM26.5741 19.9099V14.0918H25.3639V19.9099H26.5741ZM28.148 15.0008C28.3279 15.0008 28.4823 14.9388 28.6111 14.8148C28.7399 14.6907 28.8042 14.5406 28.8042 14.3645C28.8042 14.1883 28.7399 14.0378 28.6111 13.9128C28.4823 13.7878 28.3279 13.7253 28.148 13.7253C27.97 13.7253 27.8166 13.7878 27.6878 13.9128C27.559 14.0378 27.4946 14.1883 27.4946 14.3645C27.4946 14.5406 27.559 14.6907 27.6878 14.8148C27.8166 14.9388 27.97 15.0008 28.148 15.0008ZM28.7503 19.9099V15.5463H27.54V19.9099H28.7503ZM32.2588 19.9099L33.7844 15.5463H32.5031L31.5997 18.6685H31.5542L30.648 15.5463H29.3696L30.8952 19.9099H32.2588ZM36.3923 19.9952C36.9321 19.9952 37.3753 19.8739 37.7219 19.6315C38.0684 19.3891 38.2844 19.0652 38.3696 18.6599L37.2503 18.5861C37.1897 18.7527 37.0855 18.8787 36.9378 18.9639C36.79 19.0491 36.6149 19.0918 36.4122 19.0918C36.1092 19.0918 35.8686 18.998 35.6906 18.8105C35.5126 18.623 35.4236 18.3664 35.4236 18.0406V18.0378H38.3952V17.7054C38.3952 17.2111 38.3042 16.7996 38.1224 16.471C37.9406 16.1424 37.6949 15.8967 37.3852 15.7338C37.0756 15.5709 36.7285 15.4895 36.344 15.4895C35.916 15.4895 35.5434 15.5842 35.2261 15.7736C34.9089 15.963 34.6631 16.2272 34.4889 16.5662C34.3147 16.9052 34.2275 17.2991 34.2275 17.748C34.2275 18.2082 34.3147 18.6064 34.4889 18.9426C34.6631 19.2788 34.9122 19.5382 35.2361 19.721C35.5599 19.9038 35.9453 19.9952 36.3923 19.9952ZM37.256 17.2878H35.4236C35.4368 17.0397 35.5296 16.8285 35.702 16.6543C35.8743 16.48 36.095 16.3929 36.3639 16.3929C36.6272 16.3929 36.8412 16.4772 37.006 16.6457C37.1707 16.8143 37.2541 17.0283 37.256 17.2878ZM40.3952 19.9099V17.4412C40.397 17.1741 40.4827 16.9573 40.6523 16.7906C40.8218 16.624 41.0287 16.5406 41.273 16.5406C41.3563 16.5406 41.4316 16.5506 41.4988 16.5704C41.5661 16.5903 41.6281 16.6145 41.6849 16.6429L42.0486 15.6429C41.969 15.5936 41.8791 15.5548 41.7787 15.5264C41.6783 15.498 41.5694 15.4838 41.452 15.4838C41.2058 15.4838 40.9894 15.5534 40.8028 15.6926C40.6163 15.8318 40.4832 16.0368 40.4037 16.3077H40.3582V15.5463H39.1849V19.9099H40.3952ZM43.3185 21.6088C43.7616 21.6088 44.1182 21.4961 44.3881 21.2707C44.6579 21.0454 44.8544 20.7584 44.9775 20.4099L46.6821 15.5463H45.4008L44.4889 18.7508H44.4435L43.54 15.5463H42.2673L43.8327 20.0349L43.7531 20.2452C43.6679 20.444 43.5519 20.5586 43.4051 20.5889C43.2583 20.6192 43.0779 20.6022 42.8639 20.5378L42.5912 21.4753C42.6594 21.5056 42.7545 21.5354 42.8767 21.5648C42.9988 21.5941 43.1461 21.6088 43.3185 21.6088Z" fill="#70706E"/>
  </g>
  <mask id="mask1_1_1296" style="mask-type:luminance" maskUnits="userSpaceOnUse" x="1" y="1" width="49" height="25">
    <path d="M49.55 1.91016H1.54999V25.9102H49.55V1.91016Z" fill="#70706E"/>
  </mask>
  <g mask="url(#mask1_1_1296)">
    <path d="M10.7641 19.91V19.8074L6.81596 14.9718C8.05555 14.8953 8.98322 14.5854 9.59899 14.0421C10.2148 13.4988 10.585 12.8207 10.7098 12.0077H11.9896L12.4122 10.5166H10.6977C10.6011 9.94909 10.3979 9.45607 10.088 9.03751L11.9896 9.04958L12.4182 7.54639H4.51589L4.0752 9.15221H6.36923C7.02927 9.15221 7.55448 9.27295 7.94487 9.51443C8.33526 9.7559 8.59887 10.0899 8.73571 10.5166H4.49778L4.0752 12.0077H8.784C8.52643 12.9937 7.7215 13.4867 6.36923 13.4867H4.22612L4.23819 14.6639L8.56064 19.91H10.7641Z" fill="#70706E"/>
  </g>
</svg>