<svg xmlns="http://www.w3.org/2000/svg" width="22" height="34" viewBox="0 0 22 34" fill="none">
  <g clip-path="url(#clip0_1_1136)">
    <path d="M10.9514 1.39062C16.7232 1.39062 21.4022 6.06959 21.4022 11.8414C21.4022 15.3809 19.6425 18.5095 16.9503 20.4L18.5928 32.7865C18.6583 33.2803 18.1642 33.6405 17.726 33.4632L17.6332 33.4168L10.9514 29.4076L4.26963 33.4168C3.84253 33.673 3.3156 33.3627 3.30437 32.8901L3.31008 32.7864L4.95483 20.4016C2.26131 18.5113 0.500671 15.3819 0.500671 11.8414C0.500671 6.06959 5.17964 1.39062 10.9514 1.39062ZM15.7599 21.1227C14.3205 21.8699 12.6853 22.2921 10.9514 22.2921C9.21805 22.2921 7.58324 21.8701 6.14412 21.1233L4.74743 31.6425L10.6236 28.1181C10.7917 28.0172 10.9948 28.0004 11.1747 28.0677L11.2793 28.1181L17.1543 31.6425L15.7599 21.1227ZM10.9514 2.66511C5.88351 2.66511 1.77515 6.77347 1.77515 11.8414C1.77515 16.9093 5.88351 21.0177 10.9514 21.0177C12.7555 21.0177 14.438 20.497 15.8568 19.5979C15.8971 19.5613 15.9432 19.5316 15.9932 19.5081C18.4841 17.8685 20.1277 15.0469 20.1277 11.8414C20.1277 6.77347 16.0193 2.66511 10.9514 2.66511Z" fill="#252931"/>
    <path d="M9.00216 8.63921L6.07127 9.06875L5.94186 9.09494C5.10523 9.31323 4.79857 10.3833 5.44188 11.0099L7.56154 13.0749L7.0617 15.9924L7.04688 16.1177C6.99068 16.9841 7.91604 17.611 8.71291 17.1919L11.3338 15.8139L13.9546 17.1919L14.0692 17.2448C14.8758 17.5661 15.7581 16.8798 15.6059 15.9924L15.1049 13.0749L17.2257 11.0099L17.3151 10.9127C17.8645 10.245 17.4849 9.19862 16.5963 9.06875L13.6643 8.63921L12.3542 5.98484C11.9367 5.13917 10.7308 5.13917 10.3134 5.98484L9.00216 8.63921ZM11.3338 6.48852L12.909 9.67982L16.4317 10.1947L13.8827 12.6774L14.4843 16.1848L11.3338 14.528L8.18326 16.1848L8.78481 12.6774L6.23585 10.1947L9.75852 9.67982L11.3338 6.48852Z" fill="#252931"/>
  </g>
  <defs>
    <clipPath id="clip0_1_1136">
      <rect width="21.6207" height="33" fill="white" transform="translate(0 0.889893)"/>
    </clipPath>
  </defs>
</svg>