<svg xmlns="http://www.w3.org/2000/svg" width="27" height="29" viewBox="0 0 27 29" fill="none">
  <g clip-path="url(#clip0_1_1156)">
    <path d="M15.0032 23.7232H0.916241C0.592241 23.7232 0.329285 23.4625 0.329285 23.1399C0.329285 22.8173 0.592241 22.5566 0.916241 22.5566H15.0032C20.8287 22.5566 25.5684 17.8461 25.5684 12.0566C25.5684 6.26698 20.8287 1.55656 15.0032 1.55656H0.916241C0.592241 1.55656 0.329285 1.29581 0.329285 0.973226C0.329285 0.650643 0.592241 0.389893 0.916241 0.389893H15.0032C21.4762 0.389893 26.7423 5.62356 26.7423 12.0566C26.7423 18.4896 21.4756 23.7232 15.0032 23.7232Z" fill="#252931"/>
    <path d="M5.19691 28.219L0.0856934 23.1399L5.19691 18.0608L6.02687 18.8856L1.74619 23.1399L6.02687 27.3941L5.19691 28.219Z" fill="#252931"/>
    <path d="M12.9574 16.3899L16.5795 9.19243V7.6626H10.456V9.17112H14.6705V9.23078L11.0526 16.3899H12.9574Z" fill="#252931"/>
  </g>
  <defs>
    <clipPath id="clip0_1_1156">
      <rect width="27" height="28" fill="white" transform="translate(0 0.389893)"/>
    </clipPath>
  </defs>
</svg>