<svg width="24" height="24" viewBox="0 0 24 24" fill="none" xmlns="http://www.w3.org/2000/svg">
<path fill-rule="evenodd" clip-rule="evenodd" d="M3.9957 10.6054C4.20119 8.08818 6.30404 6.14999 8.82962 6.14999H15.1704C17.6959 6.14999 19.7988 8.08818 20.0043 10.6054L20.4941 16.6054C20.7247 19.4302 18.4943 21.85 15.6602 21.85H8.33982C5.50564 21.85 3.27531 19.4302 3.5059 16.6054L3.9957 10.6054ZM8.82962 7.84999C7.1893 7.84999 5.82352 9.10882 5.69006 10.7437L5.20027 16.7437C5.0505 18.5784 6.49906 20.15 8.33982 20.15H15.6602C17.5009 20.15 18.9495 18.5784 18.7997 16.7437L18.3099 10.7437C18.1765 9.10882 16.8107 7.84999 15.1704 7.84999H8.82962Z" fill="black"/>
<path fill-rule="evenodd" clip-rule="evenodd" d="M8.15002 5.99999C8.15002 3.8737 9.87373 2.14999 12 2.14999C14.1263 2.14999 15.85 3.8737 15.85 5.99999V8.99999C15.85 9.46944 15.4695 9.84999 15 9.84999C14.5306 9.84999 14.15 9.46944 14.15 8.99999V5.99999C14.15 4.81258 13.1874 3.84999 12 3.84999C10.8126 3.84999 9.85002 4.81258 9.85002 5.99999V8.99999C9.85002 9.46944 9.46947 9.84999 9.00002 9.84999C8.53058 9.84999 8.15002 9.46944 8.15002 8.99999V5.99999Z" fill="black"/>
</svg>
